<svg xmlns="http://www.w3.org/2000/svg" viewBox="0 0 1024 200" fill="none">
  <g>
    <!-- Perplexity Icon (left geometric shape) -->
    <path d="M0 0h96v96H0V0z" fill="#20808D"/>
    <path d="M48 0L96 48L48 96L0 48L48 0z" fill="#20808D"/>
    <path d="M96 48h96v96H96V48z" fill="#20808D"/>
    <path d="M144 48L192 96L144 144L96 96L144 48z" fill="#20808D"/>
    <path d="M48 96L96 144L48 192L0 144L48 96z" fill="#20808D"/>
    
    <!-- Perplexity Text -->
    <path d="M270 50h25c20 0 35 10 35 30s-15 30-35 30h-10v30h-15V50zm15 45h8c12 0 22-5 22-18s-10-18-22-18h-8v36z" fill="#1A1A1A"/>
    <path d="M350 110c0-20 15-35 35-35s35 15 35 35-15 35-35 35-35-15-35-35zm55 0c0-12-8-22-20-22s-20 10-20 22 8 22 20 22 20-10 20-22z" fill="#1A1A1A"/>
    <path d="M440 78h15v10c4-7 11-11 20-11v15c-12 0-20 6-20 20v28h-15V78z" fill="#1A1A1A"/>
    <path d="M490 50h15v25c4-7 12-11 21-11 15 0 25 10 25 26v50h-15V92c0-10-6-16-15-16s-16 6-16 16v48h-15V50z" fill="#1A1A1A"/>
    <path d="M570 50h15v90h-15V50z" fill="#1A1A1A"/>
    <path d="M610 110c0-20 15-35 35-35s35 15 35 35-15 35-35 35-35-15-35-35zm55 0c0-12-8-22-20-22s-20 10-20 22 8 22 20 22 20-10 20-22z" fill="#1A1A1A"/>
    <path d="M700 78h15l15 35 15-35h15l-23 50 23 50h-15l-15-35-15 35h-15l23-50-23-50z" fill="#1A1A1A"/>
    <path d="M780 78h15v62h-15V78zm0-20h15v12h-15V58z" fill="#1A1A1A"/>
    <path d="M820 78h15v10c4-7 11-11 20-11v15c-12 0-20 6-20 20v28h-15V78z" fill="#1A1A1A"/>
    <path d="M870 78h15v10c4-7 12-11 21-11 15 0 25 10 25 26v37h-15v-35c0-10-6-16-15-16s-16 6-16 16v35h-15V78z" fill="#1A1A1A"/>
    <path d="M950 78h15v10c4-7 11-11 20-11v15c-12 0-20 6-20 20v28h-15V78z" fill="#1A1A1A"/>
  </g>
</svg>
